<?xml version="1.0" encoding="utf-8"?>
<!-- Generator: Adobe Illustrator 24.1.0, SVG Export Plug-In . SVG Version: 6.00 Build 0)  -->
<svg version="1.0" id="Layer_1" xmlns="http://www.w3.org/2000/svg" xmlns:xlink="http://www.w3.org/1999/xlink" x="0px" y="0px"
	 viewBox="0 0 6146 1000" style="enable-background:new 0 0 6146 1000;" xml:space="preserve">
<style type="text/css">
	.st0{fill:#E0017B;}
	.st1{fill:#004A90;}
	.st2{fill:#FFFFFF;}
</style>
<g>
	<path class="st0" d="M1320.6,358.4c0,11.6-4.2,21.4-12.5,29.5c-8.3,8.1-18.3,12.2-29.9,12.2s-21.5-4.1-29.9-12.2
		c-8.3-8.1-12.5-18-12.5-29.5c0-12,4.1-22,12.2-30.2c8.1-8.1,18.2-12.2,30.2-12.2c12,0,22,4.1,30.2,12.2
		C1316.6,336.3,1320.6,346.4,1320.6,358.4z M1316.1,702.6h-77.1V416.8h77.1V702.6z"/>
	<path class="st0" d="M1687.4,702.6h-84.7l-156.2-252.7v252.7H1363V334h106l134.9,210V334h83.5V702.6z"/>
</g>
<g>
	<path class="st1" d="M1977.7,702.6h-241.5v-55.9l125.9-161.2H1742v-70h233.1v54.7l-123.4,161.1h126V702.6z"/>
	<path class="st1" d="M2118.3,358.4c0,11.6-4.2,21.4-12.5,29.5c-8.3,8.1-18.3,12.2-29.9,12.2s-21.5-4.1-29.9-12.2
		c-8.3-8.1-12.5-18-12.5-29.5c0-12,4.1-22,12.2-30.2c8.1-8.1,18.2-12.2,30.2-12.2c12,0,22,4.1,30.2,12.2
		C2114.3,336.3,2118.3,346.4,2118.3,358.4z M2113.8,702.6h-77.1V416.8h77.1V702.6z"/>
	<path class="st1" d="M2409.9,660.9c-27,31.3-64,46.9-111.1,46.9c-45,0-80.4-13.4-106.3-40.2c-25.9-26.8-38.9-63-38.9-108.5
		c0-42.9,13.6-78.4,40.8-106.5c27.2-28.1,62-42.2,104.4-42.2c40.2,0,74.1,13.2,101.5,39.5l-58.4,44.7c-10.7-10.7-25-16.1-43-16.1
		c-21.8,0-38.5,8.4-50.1,25.1c-10.3,14.6-15.4,33.3-15.4,56.1c0,53.7,22,80.6,66.2,80.6c19.7,0,35.1-6,46.2-18L2409.9,660.9z"/>
	<path class="st1" d="M2707.3,702.6h-77.7V532.4c0-12.4-5.5-23.2-16.4-32.4c-10.9-9.2-22.8-13.8-35.6-13.8
		c-12.4,0-24.7,4.7-36.9,14.1c-12.2,9.4-18.3,20.1-18.3,32.1v170.2h-77.1V359l77.1-39.8v127.2c12-17.1,37.3-25.7,75.8-25.7
		c31.7,0,57.8,9.2,78.4,27.6c20.6,18.4,30.8,43.3,30.8,74.5V702.6z"/>
	<path class="st1" d="M2918,637.1l-14.1,63.6c-20.1,4.3-37.9,6.4-53.3,6.4c-54.8,0-82.2-30.4-82.2-91.2V479.8h-34v-64.2h34v-46.9
		l71.9-36v82.9h66.2v64.2h-66.2v104.1c0,41.5,12.8,62.3,38.5,62.3C2889.5,646.1,2902.5,643.1,2918,637.1z"/>
	<path class="st1" d="M3442,702.6h-89.9l-78.4-126.5l-28.9,28.3v98.3h-77.1V357.1l77.1-37.9V508l81.6-80.3h109L3335,527.4
		L3442,702.6z"/>
	<path class="st1" d="M3724.7,701.4h-75.8v-18c-26.1,13.3-53.1,19.9-80.9,19.9c-31.7,0-56.6-8.5-74.8-25.4
		c-18.2-16.9-27.3-41.2-27.3-72.9c0-34.7,11.8-61,35.3-79c21.4-16.3,49.9-24.4,85.4-24.4c23.1,0,43.9,4.9,62.3,14.8
		c-0.9-33.8-20.6-50.7-59.1-50.7c-26.6,0-46.5,6.6-59.7,19.9l-27-48.2c21-21.8,53.1-32.8,96.3-32.8c35.1,0,64,8.1,86.7,24.4
		c25.7,18,38.5,43.9,38.5,77.7V701.4z M3648.9,616.6v-34.7c0-6-6-10.9-18.1-14.8c-9.5-3-18.3-4.5-26.5-4.5
		c-40.5,0-60.7,13.5-60.7,40.5c0,22.3,17.7,33.4,53,33.4c6.5,0,16.4-2.1,29.7-6.4C3641.3,625.4,3648.9,620.9,3648.9,616.6z"/>
	<path class="st1" d="M4023.3,701.4h-75.8v-18c-26.1,13.3-53.1,19.9-80.9,19.9c-31.7,0-56.6-8.5-74.8-25.4
		c-18.2-16.9-27.3-41.2-27.3-72.9c0-34.7,11.8-61,35.3-79c21.4-16.3,49.9-24.4,85.4-24.4c23.1,0,43.9,4.9,62.3,14.8
		c-0.9-33.8-20.6-50.7-59.1-50.7c-26.6,0-46.5,6.6-59.7,19.9l-27-48.2c21-21.8,53.1-32.8,96.3-32.8c35.1,0,64,8.1,86.7,24.4
		c25.7,18,38.5,43.9,38.5,77.7V701.4z M3947.5,616.6v-34.7c0-6-6-10.9-18.1-14.8c-9.5-3-18.3-4.5-26.5-4.5
		c-40.5,0-60.7,13.5-60.7,40.5c0,22.3,17.7,33.4,53,33.4c6.5,0,16.4-2.1,29.7-6.4C3940,625.4,3947.5,620.9,3947.5,616.6z"/>
	<path class="st1" d="M4244.3,421.2l-26.3,75.2c-10.7-6-20.1-9-28.3-9c-13.7,0-25.2,4.6-34.4,13.8c-9.2,9.2-13.8,20.6-13.8,34.3
		v167.1h-71.3V416.2h71.3V438c16.7-18.4,37.5-27.6,62.3-27.6C4220.1,410.4,4233.5,414,4244.3,421.2z"/>
	<path class="st1" d="M4437.6,637.1l-14.1,63.6c-20.1,4.3-37.9,6.4-53.3,6.4c-54.8,0-82.2-30.4-82.2-91.2V479.8h-34v-64.2h34v-46.9
		l71.9-36v82.9h66.2v64.2h-66.2v104.1c0,41.5,12.8,62.3,38.5,62.3C4409.1,646.1,4422.2,643.1,4437.6,637.1z"/>
	<path class="st1" d="M4733.7,415.5l-102.1,287.1h-80.9l-98.9-287.1h76.8l63.8,175.3l63-175.3H4733.7z"/>
	<path class="st1" d="M4841.6,358.4c0,11.6-4.2,21.4-12.5,29.5c-8.3,8.1-18.3,12.2-29.9,12.2c-11.6,0-21.5-4.1-29.9-12.2
		c-8.3-8.1-12.5-18-12.5-29.5c0-12,4.1-22,12.2-30.2c8.1-8.1,18.2-12.2,30.2-12.2c12,0,22,4.1,30.2,12.2
		C4837.5,336.3,4841.6,346.4,4841.6,358.4z M4837.1,702.6H4760V416.8h77.1V702.6z"/>
	<path class="st1" d="M5153.7,594.7H4952c-0.4,10.3,4.7,19.8,15.4,28.6c10.7,8.8,21.6,14,32.8,15.7c5.6,0.9,11.6,1.3,18,1.3
		c22.7,0,39.2-7.3,49.5-21.8l55.2,41.1c-24.8,32.1-59.7,48.2-104.7,48.2c-44.1,0-79.3-13.4-105.7-40.1
		c-26.3-26.8-39.5-62.2-39.5-106.3c0-47.5,12.7-85,38.2-112.4c25.5-27.4,61.8-41.1,108.9-41.1c45.4,0,80.7,19.5,106,58.4
		C5144.5,495,5153.7,537.8,5153.7,594.7z M5076.7,533.7c0-16.9-5.9-31.2-17.6-42.9c-11.7-11.7-26.1-17.5-43.1-17.5
		c-17,0-32,5.8-44.7,17.5c-12.8,11.7-19.2,26-19.2,42.9H5076.7z"/>
	<path class="st1" d="M5642.5,415.5l-102.1,287.1h-81.1l-53.6-155.2l-55.9,155.2h-81.1l-98.9-287.1h77.4l63.7,175.1l63.1-175.1h64.9
		l-0.6,1.3l63,173.5l62.9-174.8H5642.5z"/>
	<path class="st1" d="M5937.3,594.7h-201.7c-0.4,10.3,4.7,19.8,15.4,28.6c10.7,8.8,21.6,14,32.8,15.7c5.6,0.9,11.6,1.3,18,1.3
		c22.7,0,39.2-7.3,49.5-21.8l55.2,41.1c-24.8,32.1-59.7,48.2-104.7,48.2c-44.1,0-79.3-13.4-105.7-40.1
		c-26.3-26.8-39.5-62.2-39.5-106.3c0-47.5,12.7-85,38.2-112.4c25.5-27.4,61.8-41.1,108.9-41.1c45.4,0,80.7,19.5,106,58.4
		C5928.1,495,5937.3,537.8,5937.3,594.7z M5860.2,533.7c0-16.9-5.9-31.2-17.6-42.9c-11.7-11.7-26.1-17.5-43.1-17.5
		c-17,0-32,5.8-44.7,17.5c-12.8,11.7-19.2,26-19.2,42.9H5860.2z"/>
	<path class="st1" d="M6146,421.2l-26.3,75.2c-10.7-6-20.1-9-28.3-9c-13.7,0-25.2,4.6-34.4,13.8c-9.2,9.2-13.8,20.6-13.8,34.3v167.1
		H5972V416.2h71.3V438c16.7-18.4,37.5-27.6,62.3-27.6C6121.8,410.4,6135.3,414,6146,421.2z"/>
</g>
<path class="st0" d="M500,1000c276.2,0,500-223.8,500-500C1000,223.9,776.2,0,500,0S0,223.9,0,500C0,776.2,223.8,1000,500,1000"/>
<path class="st2" d="M701,159.2H299.3L97.9,504.6l196.6,337.2h411.3l196.7-337.3L701,159.2z M659.3,767.5H340.5L188.2,506.2
	l156.1-267.7h311.3l156.1,267.6L659.3,767.5z"/>
<g>
	<path class="st2" d="M331.8,616.4c9-8.8,17.9-17.6,26.9-26.5c20.5-20.3,41.1-40.6,61.7-60.9c1.7-1.7,1.8-2.9,0.6-5
		c-7-11.9-11.9-24.6-14.7-38.1c-4.9-23.9-3.7-47.5,4.4-70.6c9.3-26.7,25.5-48.4,48.6-64.8c19-13.5,40.2-21.6,63.5-23.8
		c31.8-3.1,61.1,4.3,87.5,22.2c25,16.9,42.3,39.9,51.8,68.7c5,15.3,7.2,30.9,6.4,46.9c-1.4,28.6-10.9,54.3-28.9,76.7
		c-22.1,27.4-50.6,43.8-85.4,48.7c-27.8,3.9-54.3-0.8-79.3-13.7c-2.2-1.1-4.3-2.3-6.4-3.6c-1.5-0.9-2.5-0.8-3.7,0.4
		c-9.4,9.4-18.9,18.8-28.4,28.2c-19.7,19.5-39.5,39.1-59.3,58.6c-0.4,0.4-0.9,0.8-1.3,1.2C361.2,646.2,346.7,631.5,331.8,616.4z
		 M453.5,458.1c-0.5,42.1,32.1,80,77.2,82.8c46.7,2.9,84-32.3,87.4-75.1c4-49-32.7-86.2-75.5-89.5
		C492.9,372.6,453.5,412.1,453.5,458.1z"/>
</g>
</svg>
